<?xml version="1.0" standalone="no"?><!DOCTYPE svg PUBLIC "-//W3C//DTD SVG 1.1//EN" "http://www.w3.org/Graphics/SVG/1.1/DTD/svg11.dtd"><svg t="1606715410861" class="icon" viewBox="0 0 1024 1024" version="1.1" xmlns="http://www.w3.org/2000/svg" p-id="2069" xmlns:xlink="http://www.w3.org/1999/xlink" width="200" height="200"><defs><style type="text/css"></style></defs><path d="M422.4 359.201c-0.015 0-0.033 0-0.050 0-44.68 0-80.9 36.219-80.9 80.9 0 44.68 36.219 80.9 80.9 80.9 44.68 0 80.9-36.219 80.9-80.9-0.057-44.64-36.215-80.814-80.842-80.9zM422.4 480.701c-22.478 0-40.701-18.222-40.701-40.701s18.222-40.701 40.701-40.701c22.478 0 40.701 18.222 40.701 40.701 0 0.004 0 0.007 0 0.012 0 22.486-18.218 40.717-40.698 40.737z" p-id="2070"></path><path d="M830.187 193.8c-80.775-81.406-192.702-131.8-316.4-131.8-0.189 0-0.378 0-0.567 0h-1.221c-248.525 0-450 201.475-450 450s201.462 450 450 450 450-201.475 450-450v-1.25c0-0.157 0-0.344 0-0.53 0-123.696-50.393-235.622-131.772-316.367zM797.237 797.25c-72.422 72.976-172.768 118.15-283.665 118.15-0.179 0-0.358 0-0.537 0h-1.034c-222.787 0-403.387-180.6-403.387-403.387-0.024-222.813 180.587-403.425 403.387-403.425 222.787 0 403.387 180.6 403.387 403.387v1.101c0 0.153 0 0.334 0 0.515 0 110.881-45.17 211.212-118.113 283.597z" p-id="2071"></path><path d="M798.25 541.587l-267.038-267c-14.422-14.449-34.361-23.386-56.388-23.386-2.213 0-4.404 0.091-6.572 0.267l-153.502 11.781c-38.313 2.949-70.626 35.262-73.575 73.575l-11.825 153.924c-0.152 1.844-0.238 3.99-0.238 6.157 0 22.010 8.934 41.933 23.375 56.341l267.013 267.064c14.477 14.474 34.474 23.425 56.563 23.425s42.085-8.951 56.563-23.425l165.624-165.7c14.444-14.471 23.376-34.448 23.376-56.513s-8.932-42.040-23.377-56.513zM274.9 494.8l11.6-150.9c1.4-18 17.2-33.75 35.2-35.2l150.9-11.6c1-0.1 2.001-0.1 3-0.1 0.026 0 0.057 0 0.088 0 10.497 0 19.989 4.305 26.807 11.244l262.006 261.955c6.906 6.912 11.177 16.457 11.177 27s-4.271 20.088-11.177 27l-162.699 162.699c-6.883 6.785-16.34 10.973-26.774 10.973-10.535 0-20.072-4.269-26.976-11.173l-262.050-262c-6.923-6.931-11.204-16.502-11.204-27.074 0-0.995 0.037-1.98 0.112-2.956z" p-id="2072"></path></svg>