<?xml version="1.0" standalone="no"?><!DOCTYPE svg PUBLIC "-//W3C//DTD SVG 1.1//EN" "http://www.w3.org/Graphics/SVG/1.1/DTD/svg11.dtd"><svg t="1606455334542" class="icon" viewBox="0 0 1024 1024" version="1.1" xmlns="http://www.w3.org/2000/svg" p-id="754" xmlns:xlink="http://www.w3.org/1999/xlink" width="200" height="200"><defs><style type="text/css"></style></defs><path d="M731.7 910.9h184.6c3.1 0 5.5-2.9 4.9-6l-24.8-127.8c-0.5-2.3-2.5-4-4.9-4h-135c-2.4 0-4.5 1.7-4.9 4L726.8 905c-0.6 3.1 1.7 5.9 4.9 5.9z" fill="#FFBD5C" p-id="755"></path><path d="M930.2 944.9H703.7c-7.6 0-15-2.9-20.3-8.4-6.2-6.5-8.8-15.4-7.1-24.1L708 749.1c2.5-12.8 13.7-22.1 26.8-22.1H899c13 0 24.3 9.3 26.8 22.1l31.7 163.3c1.7 8.7-0.9 17.6-7.1 24.1-5.2 5.5-12.6 8.4-20.2 8.4z m-205.5-40h184.6c3.1 0 5.5-2.9 4.9-6l-24.8-127.8c-0.5-2.3-2.5-4-4.9-4h-135c-2.4 0-4.5 1.7-4.9 4L719.8 899c-0.6 3.1 1.7 5.9 4.9 5.9z" fill="#4C6070" p-id="756"></path><path d="M441.7 910.9h184.6c3.1 0 5.5-2.9 4.9-6l-24.8-127.8c-0.5-2.3-2.5-4-4.9-4h-135c-2.4 0-4.5 1.7-4.9 4L436.8 905c-0.6 3.1 1.7 5.9 4.9 5.9z" fill="#FFBD5C" p-id="757"></path><path d="M640.2 944.9H413.7c-7.6 0-15-2.9-20.3-8.4-6.2-6.5-8.8-15.4-7.1-24.1L418 749.1c2.5-12.8 13.7-22.1 26.8-22.1H609c13 0 24.3 9.3 26.8 22.1l31.7 163.3c1.7 8.7-0.9 17.6-7.1 24.1-5.2 5.5-12.6 8.4-20.2 8.4z m-205.5-40h184.6c3.1 0 5.5-2.9 4.9-6l-24.8-127.8c-0.5-2.3-2.5-4-4.9-4h-135c-2.4 0-4.5 1.7-4.9 4L429.8 899c-0.6 3.1 1.7 5.9 4.9 5.9z" fill="#4C6070" p-id="758"></path><path d="M151.7 910.9h184.6c3.1 0 5.5-2.9 4.9-6l-24.8-127.8c-0.5-2.3-2.5-4-4.9-4h-135c-2.4 0-4.5 1.7-4.9 4L146.8 905c-0.6 3.1 1.7 5.9 4.9 5.9z" fill="#FFBD5C" p-id="759"></path><path d="M350.2 944.9H123.7c-7.6 0-15-2.9-20.3-8.4-6.2-6.5-8.8-15.4-7.1-24.1L128 749.1c2.5-12.8 13.7-22.1 26.8-22.1H319c13 0 24.3 9.3 26.8 22.1l31.7 163.3c1.7 8.7-0.9 17.6-7.1 24.1-5.2 5.5-12.6 8.4-20.2 8.4z m-205.5-40h184.6c3.1 0 5.5-2.9 4.9-6l-24.8-127.8c-0.5-2.3-2.5-4-4.9-4h-135c-2.4 0-4.5 1.7-4.9 4L139.8 899c-0.6 3.1 1.7 5.9 4.9 5.9z" fill="#4C6070" p-id="760"></path><path d="M586.7 690.9h184.6c3.1 0 5.5-2.9 4.9-6l-24.8-127.8c-0.5-2.3-2.5-4-4.9-4h-135c-2.4 0-4.5 1.7-4.9 4L581.8 685c-0.6 3.1 1.7 5.9 4.9 5.9z" fill="#FFBD5C" p-id="761"></path><path d="M785.2 724.9H558.7c-7.6 0-15-2.9-20.3-8.4-6.2-6.5-8.8-15.4-7.1-24.1L563 529.1c2.5-12.8 13.7-22.1 26.8-22.1H754c13 0 24.3 9.3 26.8 22.1l31.7 163.3c1.7 8.7-0.9 17.6-7.1 24.1-5.2 5.5-12.6 8.4-20.2 8.4z m-205.5-40h184.6c3.1 0 5.5-2.9 4.9-6l-24.8-127.8c-0.5-2.3-2.5-4-4.9-4h-135c-2.4 0-4.5 1.7-4.9 4L574.8 679c-0.6 3.1 1.7 5.9 4.9 5.9z" fill="#4C6070" p-id="762"></path><path d="M296.7 690.9h184.6c3.1 0 5.5-2.9 4.9-6l-24.8-127.8c-0.5-2.3-2.5-4-4.9-4h-135c-2.4 0-4.5 1.7-4.9 4L291.8 685c-0.6 3.1 1.7 5.9 4.9 5.9z" fill="#FFBD5C" p-id="763"></path><path d="M495.2 724.9H268.7c-7.6 0-15-2.9-20.3-8.4-6.2-6.5-8.8-15.4-7.1-24.1L273 529.1c2.5-12.8 13.7-22.1 26.8-22.1H464c13 0 24.3 9.3 26.8 22.1l31.7 163.3c1.7 8.7-0.9 17.6-7.1 24.1-5.2 5.5-12.6 8.4-20.2 8.4z m-205.5-40h184.6c3.1 0 5.5-2.9 4.9-6l-24.8-127.8c-0.5-2.3-2.5-4-4.9-4h-135c-2.4 0-4.5 1.7-4.9 4L284.8 679c-0.6 3.1 1.7 5.9 4.9 5.9z" fill="#4C6070" p-id="764"></path><path d="M441.7 470.9h184.6c3.1 0 5.5-2.9 4.9-6l-24.8-127.8c-0.5-2.3-2.5-4-4.9-4h-135c-2.4 0-4.5 1.7-4.9 4L436.8 465c-0.6 3.1 1.7 5.9 4.9 5.9z" fill="#FFBD5C" p-id="765"></path><path d="M640.2 504.9H413.7c-7.6 0-15-2.9-20.3-8.4-6.2-6.5-8.8-15.4-7.1-24.1L418 309.1c2.5-12.8 13.7-22.1 26.8-22.1H609c13 0 24.3 9.3 26.8 22.1l31.7 163.3c1.7 8.7-0.9 17.6-7.1 24.1-5.2 5.5-12.6 8.4-20.2 8.4z m-205.5-40h184.6c3.1 0 5.5-2.9 4.9-6l-24.8-127.8c-0.5-2.3-2.5-4-4.9-4h-135c-2.4 0-4.5 1.7-4.9 4L429.8 459c-0.6 3.1 1.7 5.9 4.9 5.9z" fill="#4C6070" p-id="766"></path><path d="M524 237.3c-11 0-20-9-20-20V101.1c0-11 9-20 20-20s20 9 20 20v116.2c0 11-9 20-20 20z" fill="#4C6070" p-id="767"></path><path d="M323.5 292c-6.8 1.2-14.1-1.2-18.8-6.8l-74.7-89c-7.1-8.5-6-21.1 2.5-28.2 8.5-7.1 21.1-6 28.2 2.5l74.7 89c7.1 8.5 6 21.1-2.5 28.2-2.8 2.3-6.1 3.7-9.4 4.3z" fill="#4C6070" p-id="768"></path><path d="M220.4 446.5c-3.3 0.6-6.9 0.3-10.3-0.9l-109.2-39.7c-10.4-3.8-15.7-15.3-12-25.6 3.8-10.4 15.3-15.7 25.6-12L223.8 408c10.4 3.8 15.7 15.3 12 25.6-2.6 7-8.6 11.7-15.4 12.9z" fill="#4C6070" p-id="769"></path><path d="M817.7 465.9c-6.5-2.4-11.6-8-12.9-15.3-1.9-10.9 5.2-23.2 16.2-23.2l114.4-20.2c10.9-1.9 21.3 5.3 23.2 16.2 1.9 10.9-5.3 21.3-16.2 23.2L828 466.8c-3.6 0.6-7.1 0.3-10.3-0.9z" fill="#4C6070" p-id="770"></path><path d="M721.2 292c-3.3-0.6-6.6-2-9.4-4.4-8.5-7.1-9.6-19.7-2.5-28.2l74.7-89c7.1-8.5 19.7-9.6 28.2-2.5s9.6 19.7 2.5 28.2l-74.7 89c-4.8 5.8-12 8.1-18.8 6.9z" fill="#4C6070" p-id="771"></path></svg>