<?xml version="1.0" standalone="no"?><!DOCTYPE svg PUBLIC "-//W3C//DTD SVG 1.1//EN" "http://www.w3.org/Graphics/SVG/1.1/DTD/svg11.dtd"><svg t="1606455337921" class="icon" viewBox="0 0 1024 1024" version="1.1" xmlns="http://www.w3.org/2000/svg" p-id="917" xmlns:xlink="http://www.w3.org/1999/xlink" width="200" height="200"><defs><style type="text/css"></style></defs><path d="M448 1024c-247.04 0-448-200.96-448-448s200.96-448 448-448l0 64c-211.744 0-384 172.256-384 384s172.256 384 384 384 384-172.256 384-384l64 0c0 247.04-200.96 448-448 448z" p-id="918"></path><path d="M1024 512l-512 0 0-512 32 0c246.72 0 480 233.248 480 480l0 32zM576 448l382.496 0c-17.792-190.944-191.552-364.704-382.496-382.496l0 382.496z" p-id="919"></path></svg>