<?xml version="1.0" standalone="no"?><!DOCTYPE svg PUBLIC "-//W3C//DTD SVG 1.1//EN" "http://www.w3.org/Graphics/SVG/1.1/DTD/svg11.dtd"><svg t="1606715520321" class="icon" viewBox="0 0 1024 1024" version="1.1" xmlns="http://www.w3.org/2000/svg" p-id="11185" xmlns:xlink="http://www.w3.org/1999/xlink" width="200" height="200"><defs><style type="text/css"></style></defs><path d="M512 986.08097c261.833697 0 474.08097-212.247273 474.08097-474.08097S773.833697 37.91903 512 37.91903 37.91903 250.166303 37.91903 512 250.166303 986.08097 512 986.08097z m0 37.91903C229.220848 1024 0 794.779152 0 512S229.220848 0 512 0 1024 229.220848 1024 512 794.779152 1024 512 1024z m260.220121-277.255758a17.935515 17.935515 0 0 1-17.997576 17.935516L246.690909 763.190303 248.180364 285.789091a18.059636 18.059636 0 0 1 36.057212 0v441.437091l469.984969 1.489454c9.929697 0 17.997576 8.067879 17.997576 18.028606z m-420.336485-55.854545l1.179152-109.133576a17.43903 17.43903 0 0 1 18.183757-17.252848 18.618182 18.618182 0 0 1 17.811394 18.804363l-1.179151 109.102546a17.43903 17.43903 0 0 1-18.183758 17.252848 18.618182 18.618182 0 0 1-17.811394-18.804363z m127.596606 3.630545l1.303273-157.75806c1.024-14.242909 7.043879-21.193697 18.059637-20.852364 11.046788 0.310303 17.004606 7.602424 17.935515 21.907394l-1.303273 156.70303c-3.444364 10.612364-9.619394 15.918545-18.494061 15.918546s-14.708364-5.306182-17.501091-15.918546z m119.901091-3.723636l1.303273-184.816485a15.794424 15.794424 0 0 1 15.763394-15.670303h3.847758a16.35297 16.35297 0 0 1 16.352969 16.446061l-1.303272 185.561212a17.37697 17.37697 0 0 1-18.121697 17.252848 18.680242 18.680242 0 0 1-17.842425-18.773333z m116.67394-0.062061l1.365333-254.572606a18.090667 18.090667 0 0 1 18.090667-17.997575 17.904485 17.904485 0 0 1 17.904485 17.997575l-1.365334 254.572606a18.090667 18.090667 0 0 1-18.090666 17.997576 17.904485 17.904485 0 0 1-17.873455-17.997576z m-395.946667-204.86206a20.573091 20.573091 0 0 1 1.489455-28.982303l130.327272-117.853091 131.413334 63.177697 114.284606-96.907636-39.90497-1.055031a18.494061 18.494061 0 0 1-17.997576-18.46303 17.780364 17.780364 0 0 1 17.997576-17.780364l80.461576 0.930909c12.877576 1.520485 20.976485 3.847758 24.265697 7.074909 3.289212 3.196121 5.026909 10.457212 5.213091 21.814303l-0.930909 71.897213a17.066667 17.066667 0 0 1-16.942546 16.849454 16.601212 16.601212 0 0 1-16.725333-16.601212v-47.197091l-149.410909 125.114182-120.304485-61.191758-114.222546 100.848485a20.635152 20.635152 0 0 1-29.044363-1.675636z" fill="#68A2FD" p-id="11186"></path></svg>